<?xml version="1.0" encoding="UTF-8" standalone="no"?>
<!-- Created with Inkscape (http://www.inkscape.org/) -->

<svg
   xmlns:dc="http://purl.org/dc/elements/1.1/"
   xmlns:cc="http://creativecommons.org/ns#"
   xmlns:rdf="http://www.w3.org/1999/02/22-rdf-syntax-ns#"
   xmlns:svg="http://www.w3.org/2000/svg"
   xmlns="http://www.w3.org/2000/svg"
   xmlns:xlink="http://www.w3.org/1999/xlink"
   xmlns:sodipodi="http://sodipodi.sourceforge.net/DTD/sodipodi-0.dtd"
   xmlns:inkscape="http://www.inkscape.org/namespaces/inkscape"
   width="200"
   height="75"
   id="svg4175"
   version="1.1"
   inkscape:version="0.48.4 r9939"
   sodipodi:docname="inmobiges-bn.svg">
  <defs
     id="defs4177">
    <clipPath
       clipPathUnits="userSpaceOnUse"
       id="clipPath4317-6">
      <path
         inkscape:connector-curvature="0"
         d="M 0,792 612,792 612,0 0,0 0,792 z"
         id="path4319-9" />
    </clipPath>
    <linearGradient
       inkscape:collect="always"
       xlink:href="#linearGradient4191"
       id="linearGradient4618"
       gradientUnits="userSpaceOnUse"
       gradientTransform="matrix(0,11.969238,11.969238,0,95.369629,456.25781)"
       spreadMethod="pad"
       x1="0"
       y1="0"
       x2="1"
       y2="0" />
    <linearGradient
       x1="0"
       y1="0"
       x2="1"
       y2="0"
       gradientUnits="userSpaceOnUse"
       gradientTransform="matrix(0,11.969238,11.969238,0,95.369629,456.25781)"
       spreadMethod="pad"
       id="linearGradient4191">
      <stop
         style="stop-opacity:1;stop-color:#1b75bb"
         offset="0"
         id="stop4193" />
      <stop
         style="stop-opacity:1;stop-color:#27baec"
         offset="0.675827"
         id="stop4195" />
      <stop
         style="stop-opacity:1;stop-color:#29beef"
         offset="1"
         id="stop4197" />
    </linearGradient>
    <linearGradient
       inkscape:collect="always"
       xlink:href="#linearGradient4213"
       id="linearGradient4620"
       gradientUnits="userSpaceOnUse"
       gradientTransform="matrix(0,12.505371,12.505371,0,77.154785,445.80225)"
       spreadMethod="pad"
       x1="0"
       y1="0"
       x2="1"
       y2="0" />
    <linearGradient
       x1="0"
       y1="0"
       x2="1"
       y2="0"
       gradientUnits="userSpaceOnUse"
       gradientTransform="matrix(0,12.505371,12.505371,0,77.154785,445.80225)"
       spreadMethod="pad"
       id="linearGradient4213">
      <stop
         style="stop-opacity:1;stop-color:#1b75bb"
         offset="0"
         id="stop4215" />
      <stop
         style="stop-opacity:1;stop-color:#27baec"
         offset="0.675827"
         id="stop4217" />
      <stop
         style="stop-opacity:1;stop-color:#29beef"
         offset="1"
         id="stop4219" />
    </linearGradient>
    <linearGradient
       inkscape:collect="always"
       xlink:href="#linearGradient4235"
       id="linearGradient4622"
       gradientUnits="userSpaceOnUse"
       gradientTransform="matrix(0,12.138184,12.138184,0,114.1792,446.04883)"
       spreadMethod="pad"
       x1="0"
       y1="0"
       x2="1"
       y2="0" />
    <linearGradient
       x1="0"
       y1="0"
       x2="1"
       y2="0"
       gradientUnits="userSpaceOnUse"
       gradientTransform="matrix(0,12.138184,12.138184,0,114.1792,446.04883)"
       spreadMethod="pad"
       id="linearGradient4235">
      <stop
         style="stop-opacity:1;stop-color:#1b75bb"
         offset="0"
         id="stop4237" />
      <stop
         style="stop-opacity:1;stop-color:#27baec"
         offset="0.675827"
         id="stop4239" />
      <stop
         style="stop-opacity:1;stop-color:#29beef"
         offset="1"
         id="stop4241" />
    </linearGradient>
    <linearGradient
       inkscape:collect="always"
       xlink:href="#linearGradient4257"
       id="linearGradient4624"
       gradientUnits="userSpaceOnUse"
       gradientTransform="matrix(0,12.138184,12.138184,0,133.06006,446.04883)"
       spreadMethod="pad"
       x1="0"
       y1="0"
       x2="1"
       y2="0" />
    <linearGradient
       x1="0"
       y1="0"
       x2="1"
       y2="0"
       gradientUnits="userSpaceOnUse"
       gradientTransform="matrix(0,12.138184,12.138184,0,133.06006,446.04883)"
       spreadMethod="pad"
       id="linearGradient4257">
      <stop
         style="stop-opacity:1;stop-color:#1b75bb"
         offset="0"
         id="stop4259" />
      <stop
         style="stop-opacity:1;stop-color:#27baec"
         offset="0.675827"
         id="stop4261" />
      <stop
         style="stop-opacity:1;stop-color:#29beef"
         offset="1"
         id="stop4263" />
    </linearGradient>
    <linearGradient
       inkscape:collect="always"
       xlink:href="#linearGradient4279"
       id="linearGradient4626"
       gradientUnits="userSpaceOnUse"
       gradientTransform="matrix(0,57.631348,57.631348,0,105.54492,394.85742)"
       spreadMethod="pad"
       x1="0"
       y1="0"
       x2="1"
       y2="0" />
    <linearGradient
       x1="0"
       y1="0"
       x2="1"
       y2="0"
       gradientUnits="userSpaceOnUse"
       gradientTransform="matrix(0,57.631348,57.631348,0,105.54492,394.85742)"
       spreadMethod="pad"
       id="linearGradient4279">
      <stop
         style="stop-opacity:1;stop-color:#1b75bb"
         offset="0"
         id="stop4281" />
      <stop
         style="stop-opacity:1;stop-color:#27baec"
         offset="0.675827"
         id="stop4283" />
      <stop
         style="stop-opacity:1;stop-color:#29beef"
         offset="1"
         id="stop4285" />
    </linearGradient>
    <linearGradient
       inkscape:collect="always"
       xlink:href="#linearGradient4301"
       id="linearGradient4628"
       gradientUnits="userSpaceOnUse"
       gradientTransform="matrix(0,50.348633,50.348633,0,106.0625,452.22852)"
       spreadMethod="pad"
       x1="0"
       y1="0"
       x2="1"
       y2="0" />
    <linearGradient
       x1="0"
       y1="0"
       x2="1"
       y2="0"
       gradientUnits="userSpaceOnUse"
       gradientTransform="matrix(0,50.348633,50.348633,0,106.0625,452.22852)"
       spreadMethod="pad"
       id="linearGradient4301">
      <stop
         style="stop-opacity:1;stop-color:#1b79be"
         offset="0"
         id="stop4303" />
      <stop
         style="stop-opacity:1;stop-color:#1b75bb"
         offset="0.670334"
         id="stop4305" />
      <stop
         style="stop-opacity:1;stop-color:#1b75bb"
         offset="0.670334"
         id="stop4307" />
      <stop
         style="stop-opacity:1;stop-color:#1b75bb"
         offset="1"
         id="stop4309" />
    </linearGradient>
    <clipPath
       clipPathUnits="userSpaceOnUse"
       id="clipPath4317">
      <path
         inkscape:connector-curvature="0"
         d="M 0,792 612,792 612,0 0,0 0,792 z"
         id="path4319" />
    </clipPath>
  </defs>
  <sodipodi:namedview
     id="base"
     pagecolor="#ffffff"
     bordercolor="#666666"
     borderopacity="1.0"
     inkscape:pageopacity="0.0"
     inkscape:pageshadow="2"
     inkscape:zoom="2.02"
     inkscape:cx="137.9823"
     inkscape:cy="62.857143"
     inkscape:document-units="px"
     inkscape:current-layer="layer1"
     showgrid="false"
     units="px"
     inkscape:window-width="1366"
     inkscape:window-height="747"
     inkscape:window-x="0"
     inkscape:window-y="21"
     inkscape:window-maximized="1" />
  <metadata
     id="metadata4180">
    <rdf:RDF>
      <cc:Work
         rdf:about="">
        <dc:format>image/svg+xml</dc:format>
        <dc:type
           rdf:resource="http://purl.org/dc/dcmitype/StillImage" />
        <dc:title></dc:title>
      </cc:Work>
    </rdf:RDF>
  </metadata>
  <g
     inkscape:label="Capa 1"
     inkscape:groupmode="layer"
     id="layer1"
     transform="translate(0,-977.36217)">
    <g
       id="g4500"
       transform="matrix(0.36716444,0,0,-0.36716444,-9.000603,1174.0247)"
       inkscape:export-xdpi="90"
       inkscape:export-ydpi="90">
      <g
         id="g4179">
        <g
           id="g4181">
          <g
             id="g4187">
            <g
               id="g4189">
              <path
                 id="path4199"
                 style="fill:url(#linearGradient4618);stroke:none"
                 d="m 89.548,462.145 c 0.88,-5.788 7.342,-7.844 11.107,-3.727 l 0,0 c 1.903,6.643 -1.607,9.809 -5.174,9.809 l 0,0 c -2.893,0 -5.823,-2.083 -5.933,-6.082"
                 inkscape:connector-curvature="0" />
            </g>
          </g>
        </g>
      </g>
      <g
         id="g4201">
        <g
           id="g4203">
          <g
             id="g4209">
            <g
               id="g4211">
              <path
                 id="path4221"
                 style="fill:url(#linearGradient4620);stroke:none"
                 d="m 74,445.991 c 6.131,-1.06 8.169,2.457 8.884,7.456 l 0,0 c -0.974,3.484 -3.002,4.861 -5.086,4.861 l 0,0 C 73.186,458.307 68.305,451.561 74,445.991"
                 inkscape:connector-curvature="0" />
            </g>
          </g>
        </g>
      </g>
      <g
         id="g4223">
        <g
           id="g4225">
          <g
             id="g4231">
            <g
               id="g4233">
              <path
                 id="path4243"
                 style="fill:url(#linearGradient4622);stroke:none"
                 d="m 108.429,449.719 c 2.783,-6.316 14.201,-4.629 11.107,6.215 l 0,0 c -1.407,1.498 -3.301,2.253 -5.134,2.253 l 0,0 c -3.523,0 -6.816,-2.793 -5.973,-8.468"
                 inkscape:connector-curvature="0" />
            </g>
          </g>
        </g>
      </g>
      <g
         id="g4245">
        <g
           id="g4247">
          <g
             id="g4253">
            <g
               id="g4255">
              <path
                 id="path4265"
                 style="fill:url(#linearGradient4624);stroke:none"
                 d="m 127.31,449.719 c 2.784,-6.316 14.201,-4.629 11.107,6.215 l 0,0 c -1.407,1.498 -3.301,2.253 -5.134,2.253 l 0,0 c -3.523,0 -6.816,-2.793 -5.973,-8.468"
                 inkscape:connector-curvature="0" />
            </g>
          </g>
        </g>
      </g>
      <g
         id="g4267">
        <g
           id="g4269">
          <g
             id="g4275">
            <g
               id="g4277">
              <path
                 id="path4287"
                 style="fill:url(#linearGradient4626);stroke:none"
                 d="m 86.216,429.837 -4.442,0 c 0.837,7.563 -0.523,12.67 -5.553,13.67 l 0,0 C 62.02,434.537 66.489,406.066 72.888,397.53 l 0,0 c 2.711,-2.765 7.93,-2.727 13.328,-2.485 l 0,0 c 1.864,3.794 -7.926,5.178 -5.553,13.667 l 0,0 c 1.985,2.96 4.498,1.511 6.508,0.063 l 0,0 c 1.981,-1.428 3.473,-2.855 3.489,-0.063 l 0,0 c 2.147,13.338 -5.16,37.252 5.553,41.007 l 0,0 c 8.29,-2.737 1.885,-21.913 5.554,-29.821 l 0,0 c 3.54,5.819 7.713,-0.886 8.883,-4.972 l 0,0 c 0.105,2.674 2.671,2.593 5.237,2.512 l 0,0 c 0.481,-0.015 0.962,-0.031 1.427,-0.027 l 0,0 c 2.193,-0.861 -0.272,-6.932 2.222,-7.456 l 0,0 c 0.977,3.954 4.461,4.21 7.774,2.487 l 0,0 c 1.71,-4.3 6.22,-11.715 1.111,-17.397 l 0,0 c 3.606,-0.722 5.168,0.845 7.775,1.241 l 0,0 c 11.635,12.448 9.849,34.692 0,45.978 l 0,0 c -3.499,1.392 -2.515,0.112 -6.663,0 l 0,0 c -2.034,-2.698 0.208,-10.176 -2.223,-12.427 l 0,0 c -0.837,0.038 -1.733,0.01 -2.629,-0.018 l 0,0 c -2.531,-0.08 -5.064,-0.159 -6.256,1.26 l 0,0 c -0.226,3.889 0.749,9.124 -1.111,11.185 l 0,0 c -3.497,1.392 -2.515,0.112 -6.664,0 l 0,0 c -2.032,-2.698 0.211,-10.176 -2.221,-12.427 l 0,0 c -9.339,-2.164 -4.266,11.797 -5.553,18.639 l 0,0 c -2.558,2.825 -4.88,4.014 -6.927,4.013 l 0,0 C 89.236,452.487 85.5,439.688 86.216,429.837"
                 inkscape:connector-curvature="0" />
            </g>
          </g>
        </g>
      </g>
      <g
         id="g4289">
        <g
           id="g4291">
          <g
             id="g4297">
            <g
               id="g4299">
              <path
                 id="path4311"
                 style="fill:url(#linearGradient4628);stroke:none"
                 d="m 53.951,461.156 c -4.272,-20.709 48.969,29.205 48.969,29.205 l 0,0 c 0,0 26.816,-17.349 45.009,-33.983 l 0,0 c 11.794,-10.783 14.239,1.593 4.272,12.745 l 0,0 c -9.967,11.15 -32.75,33.454 -48.413,33.454 l 0,0 c -15.663,0 -49.837,-41.421 -49.837,-41.421"
                 inkscape:connector-curvature="0" />
            </g>
          </g>
        </g>
      </g>
      <g
         id="g4313">
        <g
           clip-path="url(#clipPath4317)"
           id="g4315">
          <g
             transform="translate(33.8628,389.6074)"
             id="g4321">
            <path
               id="path4323"
               style="fill:#b5b5b5;fill-opacity:1;fill-rule:nonzero;stroke:none"
               d="m 0,0 c 12.477,5.336 26.087,4.003 39.698,4.003 l 166.729,0 c 56.712,0 112.289,2.668 169,-9.343"
               inkscape:connector-curvature="0" />
          </g>
          <g
             transform="translate(166.9189,398.1084)"
             id="g4325">
            <path
               id="path4327"
               style="fill:#144a9a;fill-opacity:1;fill-rule:nonzero;stroke:none"
               d="m 0,0 0,58.563 c 0,1.9 0.668,3.516 2.004,4.848 1.335,1.329 2.958,1.995 4.867,1.995 l 6.679,0 L 13.55,0 0,0 z"
               inkscape:connector-curvature="0" />
          </g>
          <g
             transform="translate(225.3193,398.1084)"
             id="g4329">
            <path
               id="path4331"
               style="fill:#144a9a;fill-opacity:1;fill-rule:nonzero;stroke:none"
               d="m 0,0 -6.68,0 c -1.908,0 -3.467,0.6 -4.675,1.806 -1.211,1.204 -1.814,2.758 -1.814,4.658 l 0,25.859 c 0,3.042 -0.924,5.259 -2.767,6.655 -1.846,1.394 -3.912,2.092 -6.203,2.092 -2.29,0 -4.326,-0.698 -6.107,-2.092 -1.783,-1.396 -2.671,-3.613 -2.671,-6.655 l 0,-32.323 -13.36,0 0,29.661 c 0,8.618 2.257,14.386 6.776,17.302 4.514,2.914 9.508,4.499 14.981,4.755 5.597,0 10.75,-1.46 15.459,-4.374 C -2.356,44.427 0,38.532 0,29.661 L 0,0 z"
               inkscape:connector-curvature="0" />
          </g>
          <g
             transform="translate(271.6963,398.1084)"
             id="g4333">
            <path
               id="path4335"
               style="fill:#144a9a;fill-opacity:1;fill-rule:nonzero;stroke:none"
               d="m 0,0 -13.17,0 0,29.661 0,2.662 c 0,3.042 -0.924,5.259 -2.766,6.655 -1.847,1.394 -3.913,2.092 -6.204,2.092 -2.289,0 -4.326,-0.698 -6.107,-2.092 -1.783,-1.396 -2.67,-3.613 -2.67,-6.655 l 0,-32.323 -13.361,0 0,29.661 c 0,8.618 2.258,14.386 6.776,17.302 4.514,2.914 9.509,4.499 14.981,4.755 2.926,0 5.788,-0.319 8.588,-0.952 2.798,-0.636 5.345,-1.901 7.634,-3.803 1.909,1.646 4.166,2.821 6.776,3.517 2.606,0.695 5.311,1.11 8.111,1.238 5.598,0 10.75,-1.46 15.458,-4.374 4.706,-2.917 7.063,-8.812 7.063,-17.683 L 31.109,0 24.428,0 C 22.519,0 20.961,0.6 19.752,1.806 18.541,3.01 17.939,4.564 17.939,6.464 l 0,25.859 c 0,3.042 -0.924,5.259 -2.767,6.655 C 13.327,40.372 11.26,41.07 8.97,41.07 6.68,41.07 4.61,40.372 2.768,38.978 0.92,37.582 0,35.365 0,32.323 L 0,29.661 0,0 z"
               inkscape:connector-curvature="0" />
          </g>
          <g
             transform="translate(321.8887,436.1362)"
             id="g4337">
            <path
               id="path4339"
               style="fill:#144a9a;fill-opacity:1;fill-rule:nonzero;stroke:none"
               d="m 0,0 c -2.672,-2.918 -3.882,-7.259 -3.625,-13.025 0.254,-5.768 1.335,-9.792 3.244,-12.074 0.763,-1.017 2.099,-1.872 4.006,-2.566 1.909,-0.699 3.848,-0.76 5.822,-0.19 1.973,0.569 3.723,1.996 5.25,4.278 1.527,2.281 2.354,5.956 2.481,11.028 0,4.562 -0.734,7.985 -2.196,10.267 C 13.519,0 11.834,1.455 9.924,2.09 8.017,2.724 6.108,2.756 4.199,2.186 2.291,1.616 0.89,0.883 0,0 m -9.159,-33.463 c -2.674,2.28 -4.581,5.352 -5.727,9.221 -1.145,3.864 -1.718,7.889 -1.718,12.072 0,3.422 0.479,6.845 1.433,10.267 0.953,3.423 2.448,6.276 4.483,8.558 3.307,3.802 7.571,6.051 12.788,6.748 5.216,0.696 9.924,0.287 14.124,-1.235 4.832,-1.9 8.395,-5.199 10.687,-9.887 2.161,-4.184 3.244,-9.063 3.244,-14.64 0,-4.059 -0.446,-7.544 -1.336,-10.458 -0.889,-2.918 -2.036,-5.389 -3.434,-7.414 -3.056,-4.185 -6.937,-6.783 -11.642,-7.797 -4.2,-1.141 -8.431,-1.236 -12.691,-0.285 -4.267,0.95 -7.668,2.566 -10.211,4.85"
               inkscape:connector-curvature="0" />
          </g>
          <g
             transform="translate(388.8779,423.7773)"
             id="g4341">
            <path
               id="path4343"
               style="fill:#144a9a;fill-opacity:1;fill-rule:nonzero;stroke:none"
               d="m 0,0 c 0,4.563 -0.953,8.11 -2.862,10.646 -1.909,2.663 -4.519,3.994 -7.825,3.994 -3.563,0 -6.298,-1.268 -8.206,-3.804 -1.91,-2.661 -2.862,-6.273 -2.862,-10.836 0,-5.324 0.889,-9.193 2.67,-11.599 1.909,-2.662 4.581,-3.992 8.016,-3.992 3.56,0 6.298,1.33 8.207,3.992 C -0.953,-8.937 0,-5.071 0,0 m -21.755,33.463 0,-15.211 c 1.397,2.406 3.434,4.374 6.106,5.894 2.289,1.267 5.087,1.903 8.397,1.903 5.979,0 10.879,-2.473 14.696,-7.416 3.816,-4.945 5.723,-11.346 5.723,-19.204 0,-7.86 -1.907,-14.26 -5.723,-19.204 -1.91,-2.409 -4.486,-4.153 -7.73,-5.229 -3.244,-1.074 -6.459,-1.617 -9.638,-1.617 -6.108,0 -11.77,1.585 -16.985,4.755 -5.22,3.167 -7.825,9.251 -7.825,18.253 l 0,43.541 6.489,0 c 1.779,0 3.307,-0.635 4.58,-1.902 1.269,-1.268 1.91,-2.789 1.91,-4.563"
               inkscape:connector-curvature="0" />
          </g>
          <g
             transform="translate(405.4814,448.6841)"
             id="g4345">
            <path
               id="path4347"
               style="fill:#144a9a;fill-opacity:1;fill-rule:nonzero;stroke:none"
               d="m 0,0 6.872,0 c 1.781,0 3.308,-0.636 4.58,-1.901 1.269,-1.268 1.91,-2.791 1.91,-4.563 l 0,-44.112 L 0,-50.576 0,0 z m 0,14.831 6.872,0 c 1.781,0 3.308,-0.635 4.58,-1.902 1.269,-1.268 1.91,-2.789 1.91,-4.563 l 0,-3.992 -13.362,0 0,10.457 z"
               inkscape:connector-curvature="0" />
          </g>
          <g
             transform="translate(431.249,423.0156)"
             id="g4349">
            <path
               id="path4351"
               style="fill:#144a9a;fill-opacity:1;fill-rule:nonzero;stroke:none"
               d="m 0,0 c 0,-8.747 2.542,-13.595 7.633,-14.544 5.086,-0.951 8.841,0.22 11.259,3.517 1.145,1.394 1.97,3.579 2.482,6.56 0.506,2.976 0.539,5.923 0.096,8.84 -0.448,2.915 -1.497,5.516 -3.15,7.796 -1.656,2.281 -4.075,3.422 -7.254,3.422 -4.327,0 -7.252,-1.587 -8.778,-4.753 C 0.759,7.667 0,4.055 0,0 m 21.755,-21.865 0,3.232 c -2.291,-3.551 -5.376,-5.768 -9.257,-6.655 -3.882,-0.884 -7.727,-0.571 -11.546,0.952 -3.817,1.52 -7.096,4.339 -9.829,8.461 -2.737,4.117 -4.102,9.536 -4.102,16.256 0,7.858 1.812,14.228 5.439,19.108 3.627,4.879 9.447,7.322 17.462,7.322 6.108,0 11.768,-1.65 16.986,-4.945 5.214,-3.298 7.825,-9.382 7.825,-18.253 l 0,-26.809 c 0,-8.87 -2.611,-14.925 -7.825,-18.158 -5.218,-3.232 -10.878,-4.849 -16.986,-4.849 -11.706,0 -18.96,5.453 -21.757,16.351 l 13.932,0 c 1.019,-1.773 2.575,-3.136 4.675,-4.087 2.101,-0.95 4.2,-1.204 6.3,-0.76 2.098,0.445 4.006,1.681 5.725,3.707 1.717,2.028 2.702,5.071 2.958,9.127"
               inkscape:connector-curvature="0" />
          </g>
          <g
             transform="translate(480.6768,428.5303)"
             id="g4353">
            <path
               id="path4355"
               style="fill:#144a9a;fill-opacity:1;fill-rule:nonzero;stroke:none"
               d="m 0,0 19.466,0 c -0.254,3.422 -1.145,5.956 -2.672,7.606 -1.654,1.772 -4.006,2.661 -7.06,2.661 -2.8,0 -5.091,-0.889 -6.872,-2.661 C 1.079,5.828 0.126,3.294 0,0 m 22.902,-14.83 9.543,0 c -1.402,-5.324 -4.072,-9.383 -8.016,-12.17 -3.945,-2.916 -8.908,-4.374 -14.887,-4.374 -7.252,0 -12.915,2.345 -16.984,7.036 -4.076,4.564 -6.107,11.091 -6.107,19.585 0,8.11 1.971,14.449 5.916,19.014 4.07,4.686 9.733,7.035 16.986,7.035 7.632,0 13.549,-2.283 17.749,-6.845 4.069,-4.692 6.107,-11.219 6.107,-19.585 l 0,-1.33 0,-0.762 c 0,-0.635 -0.066,-1.077 -0.191,-1.33 L 0,-8.556 c 0.126,-3.93 1.079,-6.845 2.862,-8.746 1.653,-2.029 4.134,-3.042 7.445,-3.042 2.162,0 4.007,0.443 5.534,1.33 0.384,0.125 0.73,0.348 1.05,0.666 0.315,0.316 0.668,0.665 1.048,1.046 0.127,0.38 0.603,0.885 1.432,1.522 0.827,0.632 2.005,0.95 3.531,0.95"
               inkscape:connector-curvature="0" />
          </g>
          <g
             transform="translate(514.8389,414.8403)"
             id="g4357">
            <path
               id="path4359"
               style="fill:#144a9a;fill-opacity:1;fill-rule:nonzero;stroke:none"
               d="m 0,0 12.979,0 c 0.125,-2.536 1.079,-4.439 2.863,-5.704 1.907,-1.269 4.452,-1.902 7.632,-1.902 2.291,0 4.262,0.443 5.918,1.333 1.526,0.884 2.289,2.089 2.289,3.611 0,2.281 -2.67,3.994 -8.016,5.133 -2.289,0.381 -4.006,0.761 -5.151,1.142 -6.747,1.646 -11.263,3.613 -13.551,5.893 -2.548,2.282 -3.817,5.325 -3.817,9.127 0,4.816 1.843,8.809 5.534,11.979 3.817,2.914 8.778,4.374 14.887,4.374 6.613,0 11.896,-1.46 15.839,-4.374 3.691,-3.17 5.66,-7.291 5.917,-12.358 l -8.206,0 c -2.418,0 -4.263,1.074 -5.537,3.232 -0.508,0.505 -1.017,1.012 -1.526,1.52 -1.527,1.141 -3.624,1.712 -6.297,1.712 -2.546,0 -4.456,-0.38 -5.726,-1.141 -1.144,-0.761 -1.717,-1.902 -1.717,-3.423 0,-2.029 3.308,-3.74 9.924,-5.133 0.763,-0.256 1.432,-0.446 2.003,-0.57 0.574,-0.128 1.113,-0.19 1.623,-0.19 6.49,-1.65 11.004,-3.551 13.552,-5.705 2.415,-2.282 3.625,-5.324 3.625,-9.127 0,-5.577 -2.035,-9.887 -6.108,-12.928 -3.816,-2.79 -9.541,-4.185 -17.176,-4.185 -7.252,0 -12.662,1.458 -16.22,4.374 C 1.844,-10.395 0,-6.148 0,-0.571 L 0,0 z"
               inkscape:connector-curvature="0" />
          </g>
          <g
             transform="translate(57.1841,385.9688)"
             id="g4361">
            <path
               id="path4363"
               style="fill:#000000;fill-opacity:1;fill-rule:nonzero;stroke:none"
               d="m 0,0 -2.688,-2.457 -1.49,0 L -2.226,0 0,0 z m -7.601,-10.394 c 0,-3.044 1.638,-5.752 4.536,-5.752 2.897,0 4.535,2.666 4.535,5.878 0,2.834 -1.47,5.774 -4.514,5.774 -3.045,0 -4.557,-2.813 -4.557,-5.9 m 11.002,0.21 c 0,-4.849 -2.96,-7.453 -6.571,-7.453 -3.759,0 -6.362,2.918 -6.362,7.201 0,4.494 2.771,7.433 6.551,7.433 3.884,0 6.382,-2.96 6.382,-7.181"
               inkscape:connector-curvature="0" />
          </g>
          <g
             transform="translate(64.7241,372.6992)"
             id="g4365">
            <path
               id="path4367"
               style="fill:#000000;fill-opacity:1;fill-rule:nonzero;stroke:none"
               d="m 0,0 c 0,-0.273 0.021,-0.525 0.084,-0.756 0.336,-1.281 1.449,-2.163 2.771,-2.163 1.953,0 3.087,1.596 3.087,3.927 0,2.015 -1.071,3.758 -3.024,3.758 C 1.659,4.766 0.462,3.884 0.126,2.498 0.063,2.268 0,1.994 0,1.764 L 0,0 z m -1.827,2.708 c 0,1.302 -0.042,2.352 -0.084,3.317 l 1.638,0 0.105,-1.742 0.042,0 c 0.735,1.238 1.953,1.952 3.611,1.952 2.478,0 4.326,-2.079 4.326,-5.143 0,-3.655 -2.247,-5.459 -4.641,-5.459 -1.343,0 -2.519,0.588 -3.128,1.596 l -0.042,0 0,-5.523 -1.827,0 0,11.002 z"
               inkscape:connector-curvature="0" />
          </g>
          <g
             transform="translate(77.0718,381.1602)"
             id="g4369">
            <path
               id="path4371"
               style="fill:#000000;fill-opacity:1;fill-rule:nonzero;stroke:none"
               d="m 0,0 0,-2.436 2.646,0 0,-1.406 -2.646,0 0,-5.48 c 0,-1.26 0.357,-1.974 1.386,-1.974 0.504,0 0.798,0.042 1.071,0.126 l 0.084,-1.406 c -0.357,-0.127 -0.924,-0.252 -1.638,-0.252 -0.861,0 -1.554,0.293 -1.995,0.776 -0.504,0.568 -0.714,1.47 -0.714,2.667 l 0,5.543 -1.574,0 0,1.406 1.574,0 0,1.89 L 0,0 z"
               inkscape:connector-curvature="0" />
          </g>
          <path
             id="path4373"
             style="fill:#000000;fill-opacity:1;fill-rule:nonzero;stroke:none"
             d="m 81.797,378.725 1.848,0 0,-10.162 -1.848,0 0,10.162 z m 2.058,2.855 c 0,-0.63 -0.441,-1.134 -1.176,-1.134 -0.672,0 -1.113,0.504 -1.113,1.134 0,0.63 0.462,1.154 1.155,1.154 0.672,0 1.134,-0.504 1.134,-1.154"
             inkscape:connector-curvature="0" />
          <g
             transform="translate(86.7109,375.9746)"
             id="g4375">
            <path
               id="path4377"
               style="fill:#000000;fill-opacity:1;fill-rule:nonzero;stroke:none"
               d="m 0,0 c 0,1.07 -0.042,1.91 -0.084,2.75 l 1.617,0 0.084,-1.658 0.063,0 C 2.247,2.057 3.191,2.96 4.892,2.96 6.257,2.96 7.307,2.12 7.748,0.924 l 0.042,0 c 0.314,0.588 0.734,1.008 1.154,1.322 0.609,0.462 1.26,0.714 2.226,0.714 1.365,0 3.359,-0.882 3.359,-4.409 l 0,-5.963 -1.805,0 0,5.732 c 0,1.973 -0.735,3.128 -2.205,3.128 C 9.448,1.448 8.65,0.672 8.314,-0.211 8.23,-0.483 8.167,-0.799 8.167,-1.135 l 0,-6.277 -1.805,0 0,6.089 C 6.362,0.293 5.648,1.448 4.241,1.448 3.107,1.448 2.247,0.524 1.953,-0.399 1.848,-0.651 1.806,-0.987 1.806,-1.303 l 0,-6.109 L 0,-7.412 0,0 z"
               inkscape:connector-curvature="0" />
          </g>
          <g
             transform="translate(109.5791,373.748)"
             id="g4379">
            <path
               id="path4381"
               style="fill:#000000;fill-opacity:1;fill-rule:nonzero;stroke:none"
               d="m 0,0 c -2.016,0.043 -4.304,-0.314 -4.304,-2.288 0,-1.218 0.798,-1.764 1.721,-1.764 1.344,0 2.205,0.84 2.499,1.7 C -0.021,-2.141 0,-1.932 0,-1.764 L 0,0 z m 1.785,-2.75 c 0,-0.882 0.042,-1.742 0.147,-2.436 l -1.659,0 -0.147,1.282 -0.063,0 c -0.567,-0.799 -1.659,-1.512 -3.107,-1.512 -2.058,0 -3.108,1.448 -3.108,2.918 0,2.457 2.184,3.801 6.11,3.779 l 0,0.21 c 0,0.82 -0.231,2.352 -2.31,2.331 -0.965,0 -1.952,-0.273 -2.666,-0.756 l -0.42,1.239 c 0.84,0.525 2.079,0.882 3.359,0.882 3.108,0 3.864,-2.121 3.864,-4.136 l 0,-3.801 z"
               inkscape:connector-curvature="0" />
          </g>
          <g
             transform="translate(124.1528,373.748)"
             id="g4383">
            <path
               id="path4385"
               style="fill:#000000;fill-opacity:1;fill-rule:nonzero;stroke:none"
               d="m 0,0 c -2.016,0.043 -4.304,-0.314 -4.304,-2.288 0,-1.218 0.798,-1.764 1.721,-1.764 1.344,0 2.205,0.84 2.499,1.7 C -0.021,-2.141 0,-1.932 0,-1.764 L 0,0 z m 1.785,-2.75 c 0,-0.882 0.042,-1.742 0.147,-2.436 l -1.659,0 -0.147,1.282 -0.063,0 c -0.567,-0.799 -1.659,-1.512 -3.107,-1.512 -2.058,0 -3.108,1.448 -3.108,2.918 0,2.457 2.184,3.801 6.11,3.779 l 0,0.21 c 0,0.82 -0.231,2.352 -2.31,2.331 -0.965,0 -1.952,-0.273 -2.666,-0.756 l -0.42,1.239 c 0.84,0.525 2.079,0.882 3.359,0.882 3.108,0 3.864,-2.121 3.864,-4.136 l 0,-3.801 z"
               inkscape:connector-curvature="0" />
          </g>
          <g
             transform="translate(135.8491,374.5879)"
             id="g4387">
            <path
               id="path4389"
               style="fill:#000000;fill-opacity:1;fill-rule:nonzero;stroke:none"
               d="m 0,0 c 0,0.231 -0.021,0.547 -0.084,0.777 -0.273,1.155 -1.281,2.121 -2.666,2.121 -1.911,0 -3.045,-1.679 -3.045,-3.906 0,-2.056 1.029,-3.758 3.003,-3.758 1.238,0 2.372,0.84 2.708,2.205 C -0.021,-2.309 0,-2.057 0,-1.764 L 0,0 z m 1.827,8.882 0,-12.282 c 0,-0.904 0.042,-1.932 0.084,-2.625 l -1.638,0 -0.084,1.763 -0.063,0 c -0.546,-1.134 -1.764,-1.994 -3.422,-1.994 -2.457,0 -4.368,2.078 -4.368,5.164 -0.021,3.381 2.1,5.439 4.557,5.439 1.574,0 2.603,-0.736 3.065,-1.533 l 0.042,0 0,6.068 1.827,0 z"
               inkscape:connector-curvature="0" />
          </g>
          <g
             transform="translate(140.7646,375.9746)"
             id="g4391">
            <path
               id="path4393"
               style="fill:#000000;fill-opacity:1;fill-rule:nonzero;stroke:none"
               d="m 0,0 c 0,1.07 -0.042,1.91 -0.084,2.75 l 1.617,0 0.084,-1.658 0.063,0 C 2.247,2.057 3.191,2.96 4.892,2.96 6.257,2.96 7.307,2.12 7.748,0.924 l 0.042,0 c 0.314,0.588 0.734,1.008 1.154,1.322 0.609,0.462 1.26,0.714 2.226,0.714 1.365,0 3.359,-0.882 3.359,-4.409 l 0,-5.963 -1.805,0 0,5.732 c 0,1.973 -0.735,3.128 -2.205,3.128 C 9.448,1.448 8.65,0.672 8.314,-0.211 8.23,-0.483 8.167,-0.799 8.167,-1.135 l 0,-6.277 -1.805,0 0,6.089 C 6.362,0.293 5.648,1.448 4.241,1.448 3.107,1.448 2.247,0.524 1.953,-0.399 1.848,-0.651 1.806,-0.987 1.806,-1.303 l 0,-6.109 L 0,-7.412 0,0 z"
               inkscape:connector-curvature="0" />
          </g>
          <path
             id="path4395"
             style="fill:#000000;fill-opacity:1;fill-rule:nonzero;stroke:none"
             d="m 158.278,378.725 1.848,0 0,-10.162 -1.848,0 0,10.162 z m 2.058,2.855 c 0,-0.63 -0.441,-1.134 -1.176,-1.134 -0.672,0 -1.113,0.504 -1.113,1.134 0,0.63 0.462,1.154 1.155,1.154 0.672,0 1.134,-0.504 1.134,-1.154"
             inkscape:connector-curvature="0" />
          <g
             transform="translate(163.1924,375.9746)"
             id="g4397">
            <path
               id="path4399"
               style="fill:#000000;fill-opacity:1;fill-rule:nonzero;stroke:none"
               d="m 0,0 c 0,1.07 -0.021,1.91 -0.084,2.75 l 1.638,0 0.105,-1.68 0.042,0 c 0.504,0.946 1.679,1.89 3.359,1.89 1.407,0 3.59,-0.84 3.59,-4.325 l 0,-6.047 -1.847,0 0,5.857 C 6.803,0.084 6.194,1.448 4.451,1.448 3.254,1.448 2.31,0.588 1.974,-0.441 1.89,-0.672 1.848,-0.987 1.848,-1.303 l 0,-6.109 L 0,-7.412 0,0 z"
               inkscape:connector-curvature="0" />
          </g>
          <path
             id="path4401"
             style="fill:#000000;fill-opacity:1;fill-rule:nonzero;stroke:none"
             d="m 174.847,378.725 1.848,0 0,-10.162 -1.848,0 0,10.162 z m 2.058,2.855 c 0,-0.63 -0.441,-1.134 -1.176,-1.134 -0.672,0 -1.113,0.504 -1.113,1.134 0,0.63 0.462,1.154 1.155,1.154 0.672,0 1.134,-0.504 1.134,-1.154"
             inkscape:connector-curvature="0" />
          <g
             transform="translate(179.5093,370.4316)"
             id="g4403">
            <path
               id="path4405"
               style="fill:#000000;fill-opacity:1;fill-rule:nonzero;stroke:none"
               d="m 0,0 c 0.567,-0.336 1.533,-0.715 2.457,-0.715 1.322,0 1.952,0.652 1.952,1.512 0,0.883 -0.525,1.344 -1.868,1.848 -1.848,0.671 -2.709,1.659 -2.709,2.876 0,1.638 1.344,2.982 3.506,2.982 1.029,0 1.932,-0.273 2.478,-0.63 L 5.375,6.529 C 4.976,6.781 4.241,7.139 3.296,7.139 2.205,7.139 1.617,6.508 1.617,5.752 1.617,4.912 2.205,4.535 3.527,4.01 5.27,3.359 6.194,2.477 6.194,0.965 6.194,-0.84 4.787,-2.1 2.415,-2.1 c -1.113,0 -2.142,0.293 -2.856,0.713 L 0,0 z"
               inkscape:connector-curvature="0" />
          </g>
          <g
             transform="translate(190.3027,381.1602)"
             id="g4407">
            <path
               id="path4409"
               style="fill:#000000;fill-opacity:1;fill-rule:nonzero;stroke:none"
               d="m 0,0 0,-2.436 2.646,0 0,-1.406 -2.646,0 0,-5.48 c 0,-1.26 0.357,-1.974 1.386,-1.974 0.504,0 0.798,0.042 1.071,0.126 l 0.084,-1.406 c -0.357,-0.127 -0.924,-0.252 -1.638,-0.252 -0.861,0 -1.554,0.293 -1.995,0.776 -0.504,0.568 -0.714,1.47 -0.714,2.667 l 0,5.543 -1.574,0 0,1.406 1.574,0 0,1.89 L 0,0 z"
               inkscape:connector-curvature="0" />
          </g>
          <g
             transform="translate(195.0278,375.5547)"
             id="g4411">
            <path
               id="path4413"
               style="fill:#000000;fill-opacity:1;fill-rule:nonzero;stroke:none"
               d="m 0,0 c 0,1.196 -0.021,2.225 -0.084,3.17 l 1.617,0 0.084,-2.016 0.063,0 C 2.142,2.52 3.275,3.38 4.514,3.38 4.703,3.38 4.85,3.359 5.018,3.338 l 0,-1.742 C 4.829,1.637 4.64,1.637 4.388,1.637 3.086,1.637 2.163,0.672 1.911,-0.715 1.869,-0.967 1.848,-1.281 1.848,-1.575 l 0,-5.417 L 0,-6.992 0,0 z"
               inkscape:connector-curvature="0" />
          </g>
          <g
             transform="translate(207.144,373.748)"
             id="g4415">
            <path
               id="path4417"
               style="fill:#000000;fill-opacity:1;fill-rule:nonzero;stroke:none"
               d="m 0,0 c -2.016,0.043 -4.304,-0.314 -4.304,-2.288 0,-1.218 0.798,-1.764 1.721,-1.764 1.344,0 2.205,0.84 2.499,1.7 C -0.021,-2.141 0,-1.932 0,-1.764 L 0,0 z m 1.785,-2.75 c 0,-0.882 0.042,-1.742 0.147,-2.436 l -1.659,0 -0.147,1.282 -0.063,0 c -0.567,-0.799 -1.659,-1.512 -3.107,-1.512 -2.058,0 -3.108,1.448 -3.108,2.918 0,2.457 2.184,3.801 6.11,3.779 l 0,0.21 c 0,0.82 -0.231,2.352 -2.31,2.331 -0.965,0 -1.952,-0.273 -2.666,-0.756 l -0.42,1.239 c 0.84,0.525 2.079,0.882 3.359,0.882 3.108,0 3.864,-2.121 3.864,-4.136 l 0,-3.801 z"
               inkscape:connector-curvature="0" />
          </g>
          <g
             transform="translate(219.1553,368.9199)"
             id="g4419">
            <path
               id="path4421"
               style="fill:#000000;fill-opacity:1;fill-rule:nonzero;stroke:none"
               d="m 0,0 c -0.483,-0.231 -1.554,-0.588 -2.918,-0.588 -3.066,0 -5.061,2.078 -5.061,5.186 0,3.129 2.142,5.417 5.459,5.417 1.092,0 2.058,-0.273 2.562,-0.546 l -0.42,-1.406 c -0.441,0.23 -1.134,0.482 -2.142,0.482 -2.33,0 -3.59,-1.742 -3.59,-3.842 0,-2.351 1.512,-3.801 3.527,-3.801 1.05,0 1.743,0.252 2.268,0.483 L 0,0 z"
               inkscape:connector-curvature="0" />
          </g>
          <path
             id="path4423"
             style="fill:#000000;fill-opacity:1;fill-rule:nonzero;stroke:none"
             d="m 221.32,378.725 1.848,0 0,-10.162 -1.848,0 0,10.162 z m 2.057,2.855 c 0,-0.63 -0.44,-1.134 -1.175,-1.134 -0.672,0 -1.113,0.504 -1.113,1.134 0,0.63 0.462,1.154 1.155,1.154 0.672,0 1.133,-0.504 1.133,-1.154"
             inkscape:connector-curvature="0" />
          <g
             transform="translate(233.2256,383.1133)"
             id="g4425">
            <path
               id="path4427"
               style="fill:#000000;fill-opacity:1;fill-rule:nonzero;stroke:none"
               d="m 0,0 -2.562,-3.003 -1.301,0 L -2.037,0 0,0 z m -5.837,-9.49 c 0,-2.227 1.26,-3.906 3.066,-3.906 1.763,0 3.086,1.659 3.086,3.947 0,1.722 -0.861,3.885 -3.044,3.885 -2.163,0 -3.108,-2.016 -3.108,-3.926 m 8.042,0.104 c 0,-3.759 -2.625,-5.395 -5.06,-5.395 -2.73,0 -4.872,2.015 -4.872,5.227 0,3.38 2.247,5.375 5.039,5.375 2.919,0 4.893,-2.12 4.893,-5.207"
               inkscape:connector-curvature="0" />
          </g>
          <g
             transform="translate(237.7627,375.9746)"
             id="g4429">
            <path
               id="path4431"
               style="fill:#000000;fill-opacity:1;fill-rule:nonzero;stroke:none"
               d="m 0,0 c 0,1.07 -0.021,1.91 -0.084,2.75 l 1.638,0 0.105,-1.68 0.042,0 c 0.504,0.946 1.679,1.89 3.359,1.89 1.407,0 3.59,-0.84 3.59,-4.325 l 0,-6.047 -1.847,0 0,5.857 C 6.803,0.084 6.194,1.448 4.451,1.448 3.254,1.448 2.31,0.588 1.974,-0.441 1.89,-0.672 1.848,-0.987 1.848,-1.303 l 0,-6.109 L 0,-7.412 0,0 z"
               inkscape:connector-curvature="0" />
          </g>
          <g
             transform="translate(260.7979,374.5879)"
             id="g4433">
            <path
               id="path4435"
               style="fill:#000000;fill-opacity:1;fill-rule:nonzero;stroke:none"
               d="m 0,0 c 0,0.231 -0.021,0.547 -0.084,0.777 -0.273,1.155 -1.281,2.121 -2.666,2.121 -1.911,0 -3.045,-1.679 -3.045,-3.906 0,-2.056 1.029,-3.758 3.003,-3.758 1.238,0 2.372,0.84 2.708,2.205 C -0.021,-2.309 0,-2.057 0,-1.764 L 0,0 z m 1.827,8.882 0,-12.282 c 0,-0.904 0.042,-1.932 0.084,-2.625 l -1.638,0 -0.084,1.763 -0.063,0 c -0.546,-1.134 -1.764,-1.994 -3.422,-1.994 -2.457,0 -4.368,2.078 -4.368,5.164 -0.021,3.381 2.1,5.439 4.557,5.439 1.574,0 2.603,-0.736 3.065,-1.533 l 0.042,0 0,6.068 1.827,0 z"
               inkscape:connector-curvature="0" />
          </g>
          <g
             transform="translate(272.1592,374.6309)"
             id="g4437">
            <path
               id="path4439"
               style="fill:#000000;fill-opacity:1;fill-rule:nonzero;stroke:none"
               d="M 0,0 C 0.021,1.154 -0.482,2.98 -2.562,2.98 -4.451,2.98 -5.249,1.28 -5.396,0 L 0,0 z m -5.417,-1.323 c 0.042,-2.499 1.616,-3.528 3.485,-3.528 1.323,0 2.142,0.232 2.814,0.525 l 0.336,-1.322 c -0.652,-0.294 -1.784,-0.651 -3.402,-0.651 -3.129,0 -4.997,2.078 -4.997,5.144 0,3.065 1.806,5.459 4.767,5.459 3.338,0 4.199,-2.898 4.199,-4.767 0,-0.377 -0.021,-0.65 -0.063,-0.86 l -7.139,0 z"
               inkscape:connector-curvature="0" />
          </g>
          <g
             transform="translate(280.4346,370.4316)"
             id="g4441">
            <path
               id="path4443"
               style="fill:#000000;fill-opacity:1;fill-rule:nonzero;stroke:none"
               d="m 0,0 c 0.566,-0.336 1.532,-0.715 2.456,-0.715 1.323,0 1.952,0.652 1.952,1.512 0,0.883 -0.524,1.344 -1.868,1.848 -1.848,0.671 -2.708,1.659 -2.708,2.876 0,1.638 1.344,2.982 3.506,2.982 1.029,0 1.932,-0.273 2.477,-0.63 L 5.375,6.529 C 4.976,6.781 4.24,7.139 3.296,7.139 2.204,7.139 1.616,6.508 1.616,5.752 1.616,4.912 2.204,4.535 3.527,4.01 5.27,3.359 6.193,2.477 6.193,0.965 6.193,-0.84 4.787,-2.1 2.414,-2.1 c -1.113,0 -2.142,0.293 -2.855,0.713 L 0,0 z"
               inkscape:connector-curvature="0" />
          </g>
          <g
             transform="translate(297.5049,371.3555)"
             id="g4445">
            <path
               id="path4447"
               style="fill:#000000;fill-opacity:1;fill-rule:nonzero;stroke:none"
               d="m 0,0 c 0,-1.071 0.021,-1.995 0.084,-2.793 l -1.638,0 -0.104,1.658 -0.043,0 c -0.461,-0.818 -1.553,-1.888 -3.36,-1.888 -1.595,0 -3.505,0.902 -3.505,4.451 l 0,5.941 1.847,0 0,-5.605 c 0,-1.932 0.61,-3.255 2.268,-3.255 1.238,0 2.099,0.86 2.435,1.7 0.106,0.252 0.168,0.588 0.168,0.945 l 0,6.215 L 0,7.369 0,0 z"
               inkscape:connector-curvature="0" />
          </g>
          <g
             transform="translate(300.3213,370.4316)"
             id="g4449">
            <path
               id="path4451"
               style="fill:#000000;fill-opacity:1;fill-rule:nonzero;stroke:none"
               d="m 0,0 c 0.566,-0.336 1.532,-0.715 2.456,-0.715 1.323,0 1.952,0.652 1.952,1.512 0,0.883 -0.524,1.344 -1.868,1.848 -1.848,0.671 -2.708,1.659 -2.708,2.876 0,1.638 1.344,2.982 3.506,2.982 1.029,0 1.932,-0.273 2.477,-0.63 L 5.375,6.529 C 4.976,6.781 4.24,7.139 3.296,7.139 2.204,7.139 1.616,6.508 1.616,5.752 1.616,4.912 2.204,4.535 3.527,4.01 5.27,3.359 6.193,2.477 6.193,0.965 6.193,-0.84 4.787,-2.1 2.414,-2.1 c -1.113,0 -2.142,0.293 -2.855,0.713 L 0,0 z"
               inkscape:connector-curvature="0" />
          </g>
          <g
             transform="translate(313.0889,370.4316)"
             id="g4453">
            <path
               id="path4455"
               style="fill:#000000;fill-opacity:1;fill-rule:nonzero;stroke:none"
               d="m 0,0 c 0.566,-0.336 1.532,-0.715 2.456,-0.715 1.323,0 1.952,0.652 1.952,1.512 0,0.883 -0.524,1.344 -1.868,1.848 -1.848,0.671 -2.708,1.659 -2.708,2.876 0,1.638 1.344,2.982 3.506,2.982 1.029,0 1.932,-0.273 2.477,-0.63 L 5.375,6.529 C 4.976,6.781 4.24,7.139 3.296,7.139 2.204,7.139 1.616,6.508 1.616,5.752 1.616,4.912 2.204,4.535 3.527,4.01 5.27,3.359 6.193,2.477 6.193,0.965 6.193,-0.84 4.787,-2.1 2.414,-2.1 c -1.113,0 -2.142,0.293 -2.855,0.713 L 0,0 z"
               inkscape:connector-curvature="0" />
          </g>
          <g
             transform="translate(328.1016,374.6309)"
             id="g4457">
            <path
               id="path4459"
               style="fill:#000000;fill-opacity:1;fill-rule:nonzero;stroke:none"
               d="M 0,0 C 0.021,1.154 -0.483,2.98 -2.562,2.98 -4.451,2.98 -5.249,1.28 -5.396,0 L 0,0 z m -5.417,-1.323 c 0.042,-2.499 1.617,-3.528 3.485,-3.528 1.324,0 2.142,0.232 2.814,0.525 l 0.336,-1.322 c -0.651,-0.294 -1.785,-0.651 -3.402,-0.651 -3.128,0 -4.997,2.078 -4.997,5.144 0,3.065 1.806,5.459 4.766,5.459 3.339,0 4.199,-2.898 4.199,-4.767 0,-0.377 -0.02,-0.65 -0.062,-0.86 l -7.139,0 z"
               inkscape:connector-curvature="0" />
          </g>
          <g
             transform="translate(332.1768,375.5547)"
             id="g4461">
            <path
               id="path4463"
               style="fill:#000000;fill-opacity:1;fill-rule:nonzero;stroke:none"
               d="m 0,0 c 0,1.196 -0.021,2.225 -0.084,3.17 l 1.617,0 0.084,-2.016 0.063,0 C 2.143,2.52 3.275,3.38 4.515,3.38 4.703,3.38 4.851,3.359 5.019,3.338 l 0,-1.742 C 4.83,1.637 4.641,1.637 4.389,1.637 3.087,1.637 2.163,0.672 1.911,-0.715 1.869,-0.967 1.848,-1.281 1.848,-1.575 l 0,-5.417 L 0,-6.992 0,0 z"
               inkscape:connector-curvature="0" />
          </g>
          <g
             transform="translate(340.2822,378.7246)"
             id="g4465">
            <path
               id="path4467"
               style="fill:#000000;fill-opacity:1;fill-rule:nonzero;stroke:none"
               d="m 0,0 1.995,-5.689 c 0.336,-0.946 0.609,-1.786 0.819,-2.625 l 0.063,0 c 0.23,0.839 0.525,1.679 0.861,2.625 L 5.711,0 7.643,0 3.654,-10.162 l -1.763,0 L -1.973,0 0,0 z"
               inkscape:connector-curvature="0" />
          </g>
          <path
             id="path4469"
             style="fill:#000000;fill-opacity:1;fill-rule:nonzero;stroke:none"
             d="m 349.669,378.725 1.848,0 0,-10.162 -1.848,0 0,10.162 z m 2.059,2.855 c 0,-0.63 -0.442,-1.134 -1.176,-1.134 -0.672,0 -1.114,0.504 -1.114,1.134 0,0.63 0.462,1.154 1.155,1.154 0.672,0 1.135,-0.504 1.135,-1.154"
             inkscape:connector-curvature="0" />
          <g
             transform="translate(361.8271,368.9199)"
             id="g4471">
            <path
               id="path4473"
               style="fill:#000000;fill-opacity:1;fill-rule:nonzero;stroke:none"
               d="m 0,0 c -0.482,-0.231 -1.554,-0.588 -2.918,-0.588 -3.066,0 -5.061,2.078 -5.061,5.186 0,3.129 2.142,5.417 5.459,5.417 1.092,0 2.058,-0.273 2.562,-0.546 l -0.42,-1.406 c -0.44,0.23 -1.134,0.482 -2.142,0.482 -2.33,0 -3.589,-1.742 -3.589,-3.842 0,-2.351 1.511,-3.801 3.527,-3.801 1.049,0 1.742,0.252 2.268,0.483 L 0,0 z"
               inkscape:connector-curvature="0" />
          </g>
          <path
             id="path4475"
             style="fill:#000000;fill-opacity:1;fill-rule:nonzero;stroke:none"
             d="m 363.991,378.725 1.848,0 0,-10.162 -1.848,0 0,10.162 z m 2.059,2.855 c 0,-0.63 -0.442,-1.134 -1.176,-1.134 -0.672,0 -1.113,0.504 -1.113,1.134 0,0.63 0.462,1.154 1.154,1.154 0.672,0 1.135,-0.504 1.135,-1.154"
             inkscape:connector-curvature="0" />
          <g
             transform="translate(370.0596,373.623)"
             id="g4477">
            <path
               id="path4479"
               style="fill:#000000;fill-opacity:1;fill-rule:nonzero;stroke:none"
               d="m 0,0 c 0,-2.227 1.26,-3.906 3.065,-3.906 1.764,0 3.087,1.659 3.087,3.947 0,1.723 -0.861,3.885 -3.045,3.885 C 0.945,3.926 0,1.91 0,0 m 8.041,0.104 c 0,-3.758 -2.624,-5.395 -5.06,-5.395 -2.729,0 -4.871,2.016 -4.871,5.228 0,3.379 2.247,5.375 5.039,5.375 2.919,0 4.892,-2.121 4.892,-5.208"
               inkscape:connector-curvature="0" />
          </g>
          <g
             transform="translate(380.1826,370.4316)"
             id="g4481">
            <path
               id="path4483"
               style="fill:#000000;fill-opacity:1;fill-rule:nonzero;stroke:none"
               d="m 0,0 c 0.566,-0.336 1.532,-0.715 2.456,-0.715 1.323,0 1.952,0.652 1.952,1.512 0,0.883 -0.524,1.344 -1.868,1.848 -1.848,0.671 -2.708,1.659 -2.708,2.876 0,1.638 1.344,2.982 3.506,2.982 1.029,0 1.932,-0.273 2.477,-0.63 L 5.375,6.529 C 4.976,6.781 4.24,7.139 3.296,7.139 2.204,7.139 1.616,6.508 1.616,5.752 1.616,4.912 2.204,4.535 3.527,4.01 5.27,3.359 6.193,2.477 6.193,0.965 6.193,-0.84 4.787,-2.1 2.414,-2.1 c -1.113,0 -2.142,0.293 -2.855,0.713 L 0,0 z"
               inkscape:connector-curvature="0" />
          </g>
          <g
             transform="translate(388.0781,369.6543)"
             id="g4485">
            <path
               id="path4487"
               style="fill:#000000;fill-opacity:1;fill-rule:nonzero;stroke:none"
               d="M 0,0 C 0,0.756 0.524,1.322 1.26,1.322 1.995,1.322 2.499,0.777 2.499,0 2.499,-0.756 1.995,-1.322 1.218,-1.322 0.504,-1.322 0,-0.756 0,0"
               inkscape:connector-curvature="0" />
          </g>
        </g>
      </g>
    </g>
  </g>
</svg>
