<?xml version="1.0" encoding="UTF-8" standalone="no"?>
<!-- Created with Inkscape (http://www.inkscape.org/) -->

<svg
   xmlns:dc="http://purl.org/dc/elements/1.1/"
   xmlns:cc="http://creativecommons.org/ns#"
   xmlns:rdf="http://www.w3.org/1999/02/22-rdf-syntax-ns#"
   xmlns:svg="http://www.w3.org/2000/svg"
   xmlns="http://www.w3.org/2000/svg"
   xmlns:sodipodi="http://sodipodi.sourceforge.net/DTD/sodipodi-0.dtd"
   xmlns:inkscape="http://www.inkscape.org/namespaces/inkscape"
   width="200"
   height="75"
   id="svg4175"
   version="1.1"
   inkscape:version="0.48.4 r9939"
   sodipodi:docname="insayd-cl.svg">
  <defs
     id="defs4177">
    <clipPath
       clipPathUnits="userSpaceOnUse"
       id="clipPath4317-6">
      <path
         inkscape:connector-curvature="0"
         d="M 0,792 612,792 612,0 0,0 0,792 z"
         id="path4319-9" />
    </clipPath>
    <linearGradient
       x1="0"
       y1="0"
       x2="1"
       y2="0"
       gradientUnits="userSpaceOnUse"
       gradientTransform="matrix(0,11.969238,11.969238,0,95.369629,456.25781)"
       spreadMethod="pad"
       id="linearGradient4191">
      <stop
         style="stop-opacity:1;stop-color:#1b75bb"
         offset="0"
         id="stop4193" />
      <stop
         style="stop-opacity:1;stop-color:#27baec"
         offset="0.675827"
         id="stop4195" />
      <stop
         style="stop-opacity:1;stop-color:#29beef"
         offset="1"
         id="stop4197" />
    </linearGradient>
    <linearGradient
       x1="0"
       y1="0"
       x2="1"
       y2="0"
       gradientUnits="userSpaceOnUse"
       gradientTransform="matrix(0,12.505371,12.505371,0,77.154785,445.80225)"
       spreadMethod="pad"
       id="linearGradient4213">
      <stop
         style="stop-opacity:1;stop-color:#1b75bb"
         offset="0"
         id="stop4215" />
      <stop
         style="stop-opacity:1;stop-color:#27baec"
         offset="0.675827"
         id="stop4217" />
      <stop
         style="stop-opacity:1;stop-color:#29beef"
         offset="1"
         id="stop4219" />
    </linearGradient>
    <linearGradient
       x1="0"
       y1="0"
       x2="1"
       y2="0"
       gradientUnits="userSpaceOnUse"
       gradientTransform="matrix(0,12.138184,12.138184,0,114.1792,446.04883)"
       spreadMethod="pad"
       id="linearGradient4235">
      <stop
         style="stop-opacity:1;stop-color:#1b75bb"
         offset="0"
         id="stop4237" />
      <stop
         style="stop-opacity:1;stop-color:#27baec"
         offset="0.675827"
         id="stop4239" />
      <stop
         style="stop-opacity:1;stop-color:#29beef"
         offset="1"
         id="stop4241" />
    </linearGradient>
    <linearGradient
       x1="0"
       y1="0"
       x2="1"
       y2="0"
       gradientUnits="userSpaceOnUse"
       gradientTransform="matrix(0,12.138184,12.138184,0,133.06006,446.04883)"
       spreadMethod="pad"
       id="linearGradient4257">
      <stop
         style="stop-opacity:1;stop-color:#1b75bb"
         offset="0"
         id="stop4259" />
      <stop
         style="stop-opacity:1;stop-color:#27baec"
         offset="0.675827"
         id="stop4261" />
      <stop
         style="stop-opacity:1;stop-color:#29beef"
         offset="1"
         id="stop4263" />
    </linearGradient>
    <linearGradient
       x1="0"
       y1="0"
       x2="1"
       y2="0"
       gradientUnits="userSpaceOnUse"
       gradientTransform="matrix(0,57.631348,57.631348,0,105.54492,394.85742)"
       spreadMethod="pad"
       id="linearGradient4279">
      <stop
         style="stop-opacity:1;stop-color:#1b75bb"
         offset="0"
         id="stop4281" />
      <stop
         style="stop-opacity:1;stop-color:#27baec"
         offset="0.675827"
         id="stop4283" />
      <stop
         style="stop-opacity:1;stop-color:#29beef"
         offset="1"
         id="stop4285" />
    </linearGradient>
    <linearGradient
       x1="0"
       y1="0"
       x2="1"
       y2="0"
       gradientUnits="userSpaceOnUse"
       gradientTransform="matrix(0,50.348633,50.348633,0,106.0625,452.22852)"
       spreadMethod="pad"
       id="linearGradient4301">
      <stop
         style="stop-opacity:1;stop-color:#1b79be"
         offset="0"
         id="stop4303" />
      <stop
         style="stop-opacity:1;stop-color:#1b75bb"
         offset="0.670334"
         id="stop4305" />
      <stop
         style="stop-opacity:1;stop-color:#1b75bb"
         offset="0.670334"
         id="stop4307" />
      <stop
         style="stop-opacity:1;stop-color:#1b75bb"
         offset="1"
         id="stop4309" />
    </linearGradient>
    <clipPath
       clipPathUnits="userSpaceOnUse"
       id="clipPath4317">
      <path
         inkscape:connector-curvature="0"
         d="M 0,792 612,792 612,0 0,0 0,792 z"
         id="path4319" />
    </clipPath>
  </defs>
  <sodipodi:namedview
     id="base"
     pagecolor="#ffffff"
     bordercolor="#666666"
     borderopacity="1.0"
     inkscape:pageopacity="0.0"
     inkscape:pageshadow="2"
     inkscape:zoom="2.02"
     inkscape:cx="137.9823"
     inkscape:cy="62.857143"
     inkscape:document-units="px"
     inkscape:current-layer="layer1"
     showgrid="false"
     units="px"
     inkscape:window-width="1366"
     inkscape:window-height="747"
     inkscape:window-x="0"
     inkscape:window-y="21"
     inkscape:window-maximized="1" />
  <metadata
     id="metadata4180">
    <rdf:RDF>
      <cc:Work
         rdf:about="">
        <dc:format>image/svg+xml</dc:format>
        <dc:type
           rdf:resource="http://purl.org/dc/dcmitype/StillImage" />
        <dc:title></dc:title>
      </cc:Work>
    </rdf:RDF>
  </metadata>
  <g
     inkscape:label="Capa 1"
     inkscape:groupmode="layer"
     id="layer1"
     transform="translate(0,-977.36217)">
    <g
       id="g5198">
      <g
         transform="matrix(1.5534918,0,0,-1.644523,66.970851,1004.5345)"
         id="g3931-4-1-7-1-9-2-1-1"
         style="fill:#000000">
        <path
           inkscape:connector-curvature="0"
           id="path3933-2-4-7-5-1-8-5-7"
           style="fill:#000000;fill-opacity:1;fill-rule:evenodd;stroke:none"
           d="m 0,0 c -0.314,0 -0.584,0.107 -0.807,0.322 -0.22,0.215 -0.334,0.49 -0.334,0.817 0,0.33 0.114,0.604 0.334,0.824 C -0.584,2.182 -0.314,2.29 0,2.29 0.322,2.29 0.596,2.182 0.818,1.963 1.049,1.743 1.16,1.469 1.16,1.139 1.16,0.824 1.049,0.556 0.818,0.332 0.596,0.107 0.322,0 0,0 m 0.859,-10.744 c 0,-1.014 0.391,-1.519 1.17,-1.519 0.313,0 0.594,0.04 0.846,0.12 l 0,-1.594 c -0.133,-0.036 -0.316,-0.068 -0.543,-0.103 -0.223,-0.031 -0.461,-0.045 -0.711,-0.045 -0.35,0 -0.682,0.055 -0.99,0.17 -0.305,0.117 -0.574,0.291 -0.799,0.528 -0.223,0.238 -0.402,0.535 -0.535,0.888 -0.131,0.354 -0.199,0.772 -0.199,1.242 l 0,8.256 1.761,0 0,-7.943 z" />
      </g>
      <g
         transform="matrix(1.5534918,0,0,-1.644523,88.45581,1027.2656)"
         id="g3935-3-2-9-2-4-2-7-4"
         style="fill:#000000">
        <path
           inkscape:connector-curvature="0"
           id="path3937-2-3-3-9-6-8-8-8"
           style="fill:#000000;fill-opacity:1;fill-rule:evenodd;stroke:none"
           d="m 0,0 -1.76,0 0,6.285 c 0,2.34 -0.851,3.509 -2.56,3.509 -0.877,0 -1.61,-0.331 -2.182,-0.993 C -7.08,8.137 -7.367,7.299 -7.367,6.285 l 0,-6.285 -1.758,0 0,11.021 1.758,0 0,-1.827 0.047,0 c 0.828,1.389 2.027,2.087 3.607,2.087 1.199,0 2.117,-0.388 2.754,-1.168 C -0.318,9.332 0,8.209 0,6.738 L 0,0 z" />
      </g>
      <g
         transform="matrix(1.5534918,0,0,-1.644523,92.679275,1026.6103)"
         id="g3939-2-2-1-8-4-9-5-2"
         style="fill:#000000">
        <path
           inkscape:connector-curvature="0"
           id="path3941-1-2-9-8-9-0-8-3"
           style="fill:#000000;fill-opacity:1;fill-rule:evenodd;stroke:none"
           d="M 0,0 0,1.896 C 0.965,1.183 2.018,0.829 3.168,0.829 c 1.545,0 2.32,0.516 2.32,1.55 0,0.291 -0.064,0.543 -0.195,0.749 C 5.158,3.329 4.979,3.514 4.756,3.67 4.527,3.826 4.262,3.971 3.957,4.096 3.656,4.222 3.326,4.352 2.977,4.49 2.492,4.682 2.063,4.875 1.695,5.076 1.326,5.274 1.018,5.493 0.771,5.744 0.525,5.99 0.338,6.273 0.211,6.587 0.086,6.904 0.023,7.272 0.023,7.697 c 0,0.516 0.12,0.974 0.354,1.371 0.238,0.399 0.553,0.731 0.945,1 0.395,0.27 0.844,0.475 1.348,0.61 0.508,0.135 1.027,0.205 1.566,0.205 0.95,0 1.801,-0.165 2.553,-0.497 l 0,-1.788 C 5.979,9.132 5.051,9.396 3.998,9.396 3.666,9.396 3.371,9.36 3.105,9.283 2.842,9.207 2.613,9.1 2.424,8.967 2.232,8.832 2.088,8.666 1.986,8.477 1.879,8.285 1.83,8.074 1.83,7.846 1.83,7.559 1.879,7.316 1.986,7.125 2.088,6.932 2.242,6.762 2.439,6.609 2.639,6.457 2.881,6.322 3.168,6.201 3.455,6.075 3.783,5.946 4.145,5.803 4.635,5.614 5.068,5.422 5.459,5.225 5.842,5.027 6.172,4.809 6.445,4.557 6.717,4.311 6.924,4.023 7.07,3.701 7.219,3.379 7.291,2.998 7.291,2.549 7.291,2.008 7.174,1.533 6.932,1.129 6.695,0.727 6.373,0.395 5.973,0.13 5.57,-0.139 5.107,-0.336 4.59,-0.461 4.064,-0.591 3.52,-0.658 2.945,-0.658 1.816,-0.658 0.834,-0.439 0,0" />
      </g>
      <g
         transform="matrix(1.5534918,0,0,-1.644523,120.26292,1027.2656)"
         id="g3943-6-1-8-8-6-7-3-6"
         style="fill:#000000">
        <path
           inkscape:connector-curvature="0"
           id="path3945-8-6-6-7-7-8-2-3"
           style="fill:#000000;fill-opacity:1;fill-rule:evenodd;stroke:none"
           d="m 0,0 -1.76,0 0,1.721 -0.039,0 C -2.566,0.403 -3.695,-0.26 -5.182,-0.26 c -1.093,0 -1.955,0.291 -2.572,0.874 -0.619,0.583 -0.928,1.354 -0.928,2.312 0,2.061 1.211,3.262 3.629,3.599 l 3.293,0.46 c 0,1.872 -0.752,2.809 -2.263,2.809 -1.325,0 -2.518,-0.452 -3.582,-1.356 l 0,1.809 c 1.08,0.691 2.324,1.034 3.73,1.034 C -1.289,11.281 0,9.91 0,7.168 L 0,0 z M -1.76,5.572 -4.408,5.211 C -5.227,5.095 -5.842,4.893 -6.258,4.602 -6.67,4.311 -6.879,3.795 -6.879,3.056 c 0,-0.538 0.191,-0.976 0.576,-1.318 0.381,-0.34 0.891,-0.51 1.53,-0.51 0.873,0 1.593,0.305 2.162,0.918 0.57,0.614 0.851,1.393 0.851,2.331 l 0,1.095 z" />
      </g>
      <g
         transform="matrix(1.5534918,0,0,-1.644523,139.02926,1009.1405)"
         id="g3947-5-8-5-9-4-1-4-0"
         style="fill:#000000">
        <path
           inkscape:connector-curvature="0"
           id="path3949-7-5-0-6-0-5-1-3"
           style="fill:#000000;fill-opacity:1;fill-rule:evenodd;stroke:none"
           d="m 0,0 -5.057,-12.786 c -0.902,-2.282 -2.17,-3.424 -3.8,-3.424 -0.457,0 -0.842,0.045 -1.147,0.14 l 0,1.58 c 0.377,-0.124 0.727,-0.192 1.039,-0.192 0.887,0 1.555,0.533 2,1.596 l 0.879,2.088 -4.295,10.998 1.953,0 2.975,-8.48 c 0.037,-0.108 0.109,-0.391 0.226,-0.838 l 0.061,0 c 0.037,0.17 0.109,0.443 0.217,0.814 L -1.828,0 0,0 z" />
      </g>
      <g
         transform="matrix(1.5534918,0,0,-1.644523,156.38161,1027.2656)"
         id="g3951-6-7-2-4-9-8-15-5"
         style="fill:#000000">
        <path
           inkscape:connector-curvature="0"
           id="path3953-1-6-8-6-9-6-95-2"
           style="fill:#000000;fill-opacity:1;fill-rule:evenodd;stroke:none"
           d="m 0,0 -1.76,0 0,1.873 -0.045,0 C -2.619,0.453 -3.879,-0.26 -5.58,-0.26 c -1.383,0 -2.488,0.492 -3.313,1.483 -0.824,0.986 -1.242,2.33 -1.242,4.027 0,1.824 0.457,3.285 1.377,4.384 0.914,1.096 2.137,1.647 3.66,1.647 1.51,0 2.608,-0.594 3.293,-1.787 l 0.045,0 0,6.824 1.76,0 L 0,0 z m -1.76,4.982 0,1.627 c 0,0.891 -0.291,1.645 -0.879,2.262 -0.586,0.615 -1.328,0.923 -2.236,0.923 -1.07,0 -1.916,-0.394 -2.529,-1.183 -0.619,-0.789 -0.924,-1.882 -0.924,-3.271 0,-1.272 0.297,-2.276 0.881,-3.01 0.592,-0.734 1.384,-1.102 2.381,-1.102 0.98,0 1.777,0.353 2.388,1.067 0.615,0.707 0.918,1.603 0.918,2.687" />
      </g>
      <path
         d="m 159.83613,1026.9411 1.86449,0 0,2.376 -1.86449,0 0,-2.376"
         style="font-size:22.25839232999999950px;font-variant:normal;font-weight:normal;font-stretch:normal;writing-mode:lr-tb;fill:#666666;fill-opacity:1;fill-rule:nonzero;stroke:none;font-family:Segoe Print;-inkscape-font-specification:SegoePrint"
         id="path3938"
         inkscape:connector-curvature="0" />
      <path
         d="m 171.27106,1019.2424 0,1.609 c -0.4595,-0.2682 -0.92195,-0.4677 -1.38734,-0.5987 -0.4595,-0.1372 -0.92489,-0.2058 -1.39616,-0.2058 -1.05451,0 -1.87337,0.3555 -2.45658,1.0664 -0.58321,0.7047 -0.8748,1.6963 -0.8748,2.9747 0,1.2784 0.29159,2.2731 0.8748,2.984 0.58321,0.7047 1.40207,1.0571 2.45658,1.0571 0.47127,0 0.93666,-0.066 1.39616,-0.1965 0.46539,-0.1372 0.92784,-0.3399 1.38734,-0.608 l 0,1.5902 c -0.45362,0.2245 -0.92489,0.3929 -1.41385,0.5052 -0.48307,0.1122 -0.99853,0.1683 -1.5464,0.1683 -1.49043,0 -2.67453,-0.4957 -3.55229,-1.4873 -0.87776,-0.9916 -1.31665,-2.3292 -1.31665,-4.013 0,-1.7087 0.44183,-3.0526 1.3255,-4.0317 0.88955,-0.9791 2.10603,-1.4687 3.64948,-1.4687 0.50073,0 0.9897,0.056 1.46687,0.1684 0.47716,0.106 0.93961,0.2682 1.38734,0.4864"
         style="font-size:22.25839232999999950px;font-variant:normal;font-weight:normal;font-stretch:normal;writing-mode:lr-tb;fill:#666666;fill-opacity:1;fill-rule:nonzero;stroke:none;font-family:Segoe Print;-inkscape-font-specification:SegoePrint"
         id="path3940"
         inkscape:connector-curvature="0" />
      <path
         d="m 177.15917,1020.0469 c -0.87188,0 -1.56113,0.3617 -2.06775,1.0851 -0.50663,0.7172 -0.75995,1.7025 -0.75995,2.956 0,1.2535 0.25037,2.2419 0.75111,2.9653 0.50664,0.7172 1.19883,1.0758 2.07659,1.0758 0.86597,0 1.55227,-0.3617 2.05891,-1.0851 0.50662,-0.7234 0.75994,-1.7088 0.75994,-2.956 0,-1.241 -0.25332,-2.2232 -0.75994,-2.9466 -0.50664,-0.7297 -1.19294,-1.0945 -2.05891,-1.0945 m 0,-1.4593 c 1.41384,0 2.52428,0.4865 3.33137,1.4593 0.80707,0.9729 1.2106,2.3199 1.21062,4.0411 -2e-5,1.715 -0.40355,3.062 -1.21062,4.0411 -0.80709,0.9728 -1.91753,1.4592 -3.33137,1.4592 -1.41975,0 -2.53315,-0.4864 -3.34021,-1.4592 -0.80118,-0.9791 -1.20178,-2.3261 -1.20178,-4.0411 0,-1.7212 0.4006,-3.0682 1.20178,-4.0411 0.80706,-0.9728 1.92046,-1.4593 3.34021,-1.4593"
         style="font-size:22.25839232999999950px;font-variant:normal;font-weight:normal;font-stretch:normal;writing-mode:lr-tb;fill:#666666;fill-opacity:1;fill-rule:nonzero;stroke:none;font-family:Segoe Print;-inkscape-font-specification:SegoePrint"
         id="path3942"
         inkscape:connector-curvature="0" />
      <path
         d="m 191.25455,1020.8514 c 0.40647,-0.7733 0.89247,-1.3439 1.45801,-1.7119 0.56554,-0.3679 1.23123,-0.5519 1.99707,-0.5519 1.03093,0 1.82621,0.3836 2.38587,1.1506 0.55964,0.7608 0.83945,1.8459 0.83947,3.2553 l 0,6.3236 -1.63475,0 0,-6.2675 c -2e-5,-1.004 -0.16792,-1.7492 -0.5037,-2.2356 -0.3358,-0.4865 -0.84832,-0.7297 -1.53755,-0.7297 -0.84243,0 -1.5081,0.2963 -1.99705,0.8887 -0.48898,0.5924 -0.73346,1.4 -0.73346,2.4228 l 0,5.9213 -1.63475,0 0,-6.2675 c 0,-1.0102 -0.1679,-1.7554 -0.50368,-2.2356 -0.33579,-0.4865 -0.8542,-0.7297 -1.55524,-0.7297 -0.83064,0 -1.49043,0.2994 -1.97938,0.898 -0.48896,0.5925 -0.73343,1.397 -0.73343,2.4135 l 0,5.9213 -1.63476,0 0,-10.4769 1.63476,0 0,1.6276 c 0.37112,-0.6423 0.81589,-1.1162 1.33432,-1.4218 0.51841,-0.3056 1.13402,-0.4584 1.84684,-0.4584 0.71869,0 1.3284,0.1934 1.82916,0.58 0.50662,0.3867 0.8807,0.9479 1.12225,1.6838"
         style="font-size:22.25839232999999950px;font-variant:normal;font-weight:normal;font-stretch:normal;writing-mode:lr-tb;fill:#666666;fill-opacity:1;fill-rule:nonzero;stroke:none;font-family:Segoe Print;-inkscape-font-specification:SegoePrint"
         id="path3944"
         inkscape:connector-curvature="0" />
      <path
         inkscape:connector-curvature="0"
         id="path4375-3-7"
         d="m 22.322518,1031.2575 c 0,0 -6.11166,-4.0966 -5.713092,-6.7257 0.398592,-2.6292 6.908878,-6.6646 6.975297,-8.0098 0.06634,-1.3451 -0.664316,-3.1794 -2.192239,-3.5463 -1.527907,-0.3668 -6.310989,3.9743 -6.643136,3.424 -0.332164,-0.5502 1.992954,-5.5028 2.524396,-5.8697 0.531468,-0.3668 -2.590817,-0.428 -2.723666,-2.996 -0.13285,-2.568 3.122258,-2.7514 3.122258,-2.7514 0,0 -0.332147,-0.3057 0.132849,0 0.465014,0.3057 2.125821,4.28 2.125821,4.28 0,0 2.192217,-4.708 3.587272,-4.4023 1.395056,0.3057 2.590816,1.4063 1.926525,2.7514 -0.664318,1.3452 -2.524413,4.28 -2.524413,4.28 0,0 5.713117,-1.7731 8.503221,0.3058 2.790112,2.0788 3.653751,1.2228 4.716637,10.3942 1.062884,9.1715 -13.81773,8.8658 -13.81773,8.8658 z"
         style="opacity:0.1;fill:#000000;stroke:none" />
      <path
         sodipodi:nodetypes="csccccccsssscc"
         inkscape:connector-curvature="0"
         id="path5145-0-2"
         d="m 42.717312,1010.8485 c 0,0 1.328628,-0.428 0.996481,-1.8955 -0.332163,-1.4674 -4.052336,-1.6508 -3.91946,-3.3017 0.132842,-1.6508 5.314491,-5.0748 5.314491,-5.0748 0,0 0.26575,-5.62521 1.129365,-5.50292 0.863613,0.12228 1.727202,5.38062 1.727202,5.38062 0,0 6.37741,2.0177 6.111684,5.4417 0.336021,2.3172 -2.668874,1.6587 -4.108283,2.0837 0.312806,0.8061 -0.475478,4.4586 0.454657,5.6203 0.930036,1.1617 5.18165,2.9349 5.845943,6.2977 0.664333,3.3629 -0.398567,7.0926 -5.513797,8.2543 -5.115202,1.1618 -9.765409,-0.4891 -11.559041,-5.564 -1.793649,-5.0748 3.520851,-11.7394 3.520851,-11.7394 z"
         style="opacity:0.1;fill:#000000;stroke:none" />
      <g
         id="g5147-8-2"
         transform="matrix(2.1693933,0,0,1.9966942,-936.68019,89.096947)"
         style="fill:#000000">
        <g
           style="fill:#000000"
           id="g3895-0-4-2-2-5-3-4-5-9-5"
           transform="matrix(0.75230578,0,0,-0.86527094,441.89382,471.35297)">
          <path
             d="m 0,0 c 0,0 -4.002,1.988 -3.559,4.1 0.45,2.113 4.131,3.009 4.065,4.103 -0.063,1.088 -1.012,1.535 -1.524,1.535 -0.505,0 -3.238,-2.113 -3.554,-1.535 -0.315,0.573 1.082,3.199 1.525,3.584 0,0 -3.238,1.026 -1.017,3.078 2.222,2.047 3.046,-1.541 3.046,-1.541 0,0 1.84,3.651 3.559,2.052 1.711,-1.605 -1.018,-3.589 -1.018,-3.589 0,0 4.702,1.537 6.606,-2.049 C 10.033,6.15 10.08,3.22 8.635,2.052 3.113,-2.42 -9.334,-1.408 -12.191,0.514 c 0,0 5.045,-1.523 11.173,-1.026 3.543,0.286 8.432,0.604 9.653,3.588 0.73,1.783 0.572,6.278 -2.031,7.685 -2.604,1.411 -5.588,0.516 -5.588,0.516 0,0 2.541,2.88 1.013,3.588 -1.523,0.703 -3.047,-2.562 -3.047,-2.562 0,0 -0.886,3.968 -2.541,2.047 -1.648,-1.922 1.018,-2.563 1.018,-2.563 0,0 -1.967,-2.308 -1.523,-3.074 0.443,-0.77 2.349,1.793 3.558,1.537 C 0.697,9.994 1.08,9.031 1.016,8.203 0.953,7.369 -2.922,5.765 -3.047,4.1 -3.178,2.436 0,0 0,0"
             style="fill:#000000;fill-opacity:1;fill-rule:evenodd;stroke:none"
             id="path3897-9-0-7-7-1-3-0-4-1-9"
             inkscape:connector-curvature="0" />
        </g>
        <g
           style="fill:#000000"
           id="g3899-4-9-9-8-5-3-9-3-3-1"
           transform="matrix(0.75230578,0,0,-0.86527094,439.11676,469.49741)">
          <path
             d="m 0,0 3.559,-2.053 -4.573,0 3.047,0.516 -3.047,0.512 2.03,0 L 0,0 z"
             style="fill:#000000;fill-opacity:1;fill-rule:evenodd;stroke:none"
             id="path3901-8-4-5-9-3-7-4-1-4-0"
             inkscape:connector-curvature="0" />
        </g>
        <g
           style="fill:#000000"
           id="g3903-8-8-4-8-4-4-8-2-7-8"
           transform="matrix(0.75230578,0,0,-0.86527094,439.97928,461.98711)">
          <path
             d="M 0,0 C 0,0.26 0.227,0.47 0.516,0.47 0.799,0.47 1.025,0.26 1.025,0 1.025,-0.26 0.799,-0.471 0.516,-0.471 0.227,-0.471 0,-0.26 0,0"
             style="fill:#000000;fill-opacity:1;fill-rule:evenodd;stroke:none"
             id="path3905-2-8-3-0-2-3-8-3-4-5"
             inkscape:connector-curvature="0" />
        </g>
      </g>
      <g
         transform="matrix(0.48944002,0,0,0.45440656,-6.3999508,992.28542)"
         style="fill:#000000"
         id="g3975-5-8-2-3-6-0">
        <g
           style="fill:#000000"
           id="g3907-4-2-1-3-7-0-4-4-3-7"
           transform="matrix(3.3345192,0,0,-3.8020611,100.93041,40.659046)">
          <path
             d="m 0,0 c 0,0 -2.953,-1.695 -3.078,-5.557 -0.207,-6.349 7.182,-5.462 7.088,-5.086 -0.031,0.129 -1.545,0.018 -3.545,0.565 -0.684,0.192 -2.145,0.945 -2.705,2.922 -0.561,1.974 0.312,4.051 0.717,4.709 C -1.121,-1.789 0,0 0,0"
             style="fill:#000000;fill-opacity:1;fill-rule:evenodd;stroke:none"
             id="path3909-5-4-2-3-1-8-5-1-6-9"
             inkscape:connector-curvature="0" />
        </g>
        <g
           style="fill:#000000"
           id="g3911-5-5-3-5-7-8-5-1-5-0"
           transform="matrix(3.3345192,0,0,-3.8020611,115.54494,81.122861)">
          <path
             d="M 0,0 C 0,0 5.848,0.598 4.631,5.431 4.098,7.568 2.207,7.505 1.275,8.822 0.471,9.961 0.188,12.24 0.188,12.24 c 0,0 -0.278,-1.581 -0.094,-2.445 C 0.779,6.561 3.887,7.629 4.012,4.145 4.121,1.098 0,0 0,0"
             style="fill:#000000;fill-opacity:1;fill-rule:evenodd;stroke:none"
             id="path3913-1-5-3-6-6-0-1-3-2-5"
             inkscape:connector-curvature="0" />
        </g>
        <g
           style="fill:#000000"
           id="g3915-7-1-4-8-0-6-7-8-8-3"
           transform="matrix(3.3345192,0,0,-3.8020611,100.61129,34.584493)">
          <path
             d="m 0,0 c 0,0 -2.313,0 -2.328,1.318 -0.027,1.51 3.449,3.11 3.449,3.11 0,0 0.219,3.23 1.215,3.199 C 3.33,7.596 3.545,4.428 3.545,4.428 3.545,4.428 6.74,3.154 7.184,2.17 7.65,1.125 7.469,-0.044 6.324,-0.139 5.172,-0.232 3.732,0.426 3.92,0.942 c 0.105,0.3 2.869,-1.788 3.008,0.093 0.148,1.998 -3.756,3.11 -3.756,3.11 0,0 -0.219,3.039 -0.836,3.039 -0.623,0 -0.844,-3.133 -0.844,-3.133 0,0 -3.535,-1.811 -3.332,-2.756 C -1.605,0.215 0,0 0,0"
             style="fill:#000000;fill-opacity:1;fill-rule:evenodd;stroke:none"
             id="path3917-1-7-1-4-3-8-1-7-1-4"
             inkscape:connector-curvature="0" />
        </g>
        <g
           style="fill:#000000"
           id="g3919-1-1-1-2-4-1-1-4-0-1"
           transform="matrix(3.3345192,0,0,-3.8020611,100.93041,4.3242688)">
          <path
             d="m 0,0 c 0,0 1.609,-1.39 1.396,-1.744 -0.21,-0.354 -2.517,0.471 -2.517,0.471 0,0 2.008,-0.471 2.219,-0.255 C 1.305,-1.317 0,0 0,0"
             style="fill:#000000;fill-opacity:1;fill-rule:evenodd;stroke:none"
             id="path3921-5-1-3-2-0-9-5-2-3-0"
             inkscape:connector-curvature="0" />
        </g>
        <g
           style="fill:#000000"
           id="g3923-2-5-8-9-5-8-2-7-1-4"
           transform="matrix(3.3345192,0,0,-3.8020611,110.49114,9.3327239)">
          <path
             d="m 0,0 c 0,0 0.813,-0.095 1.775,0.563 0.961,0.659 1.327,0.942 1.327,0.942 0,0 -2.106,-2.078 -2.731,-1.766 0,0 1.953,-0.242 2.266,0.072 0,0 -1.283,-0.479 -1.821,-0.449 -0.765,0.045 -0.795,0.356 -0.795,0.356 L 0,0 z"
             style="fill:#000000;fill-opacity:1;fill-rule:evenodd;stroke:none"
             id="path3925-7-2-7-1-4-9-7-7-5-8"
             inkscape:connector-curvature="0" />
        </g>
        <g
           style="fill:#000000"
           id="g3927-6-7-4-4-1-7-6-9-5-5"
           transform="matrix(3.3345192,0,0,-3.8020611,119.28327,80.762426)">
          <path
             d="M 0,0 C 0,0 5.012,2.522 7.74,0.47 9.277,-0.682 -5.316,-2.07 -5.316,-2.07 -5.316,-2.07 8,-0.399 7.297,0.354 5.93,1.827 0,0 0,0"
             style="fill:#000000;fill-opacity:1;fill-rule:evenodd;stroke:none"
             id="path3929-1-6-2-6-8-2-1-3-2-9"
             inkscape:connector-curvature="0" />
        </g>
      </g>
    </g>
  </g>
</svg>
